g default

v -0.5 0.0 -0.5
v -0.5 0.0  0.5
v  0.5 0.0  0.5
v  0.5 0.0 -0.5

v -1.5 0.0 -1.5
v -0.5 0.0 -1.5
v  0.5 0.0 -1.5
v  1.5 0.0 -1.5

v -1.5 0.0  1.5
v -0.5 0.0  1.5
v  0.5 0.0  1.5
v  1.5 0.0  1.5

v -1.5 0.0 -0.5
v -1.5 0.0  0.5
v  1.5 0.0 -0.5
v  1.5 0.0  0.5

vn  0.0  1.0  0.0

f  5//1 13//1  1//1  6//1
f  6//1  1//1  4//1  7//1
#f  7//1  4//1 15//1  8//1
f 13//1 14//1  2//1  1//1
f  1//1  2//1  3//1  4//1
#f  4//1  3//1 16//1 15//1
#f 14//1  9//1 10//1  2//1
#f  2//1 10//1 11//1  3//1
#f  3//1 11//1 12//1 16//1
